<svg id="iconModuleNotifyMe" data-name="Notify Me Icon" xmlns="http://www.w3.org/2000/svg" viewBox="0 0 25 25" height="130" width="130"><defs></defs>
	<title>Notify Me</title>
	<g transform="translate(0,1.25)">
		<polygon style="fill:currentcolor;" points="0,22.475 0,5.277 14.147,5.277 14.147,6.359 1.909,6.363 9.798,14.252 15.278,8.754 16.045,9.523 9.926,15.658 9.816,15.806 1.086,7.077 1.086,21.389 18.469,21.389 18.469,10.747 19.534,10.747 19.555,22.475 	"></polygon>
		<path style="fill:currentcolor;" d="M19.802,10.396c-2.866,0-5.198-2.332-5.198-5.198S16.936,0,19.802,0C22.668,0,25,2.332,25,5.198 S22.668,10.396,19.802,10.396z M19.802,1.044c-2.291,0-4.154,1.864-4.154,4.154s1.864,4.154,4.154,4.154s4.154-1.864,4.154-4.154 S22.093,1.044,19.802,1.044z"></path>
		<rect x="19.28" y="1.72" style="fill:currentcolor;" width="1.044" height="5.19"></rect>
		<circle style="fill:currentcolor;" cx="19.802" cy="7.98" r="0.558"></circle>
	</g>
</svg>