<svg id="iconModuleLicensing" data-name="Licenses Icon" xmlns="http://www.w3.org/2000/svg" viewBox="0 0 25 25" height="130" width="130"><defs></defs>
	<title>Licenses</title>
	<g transform="translate(1,0)">
		<rect x="2.778" y="9.274" style="fill:currentcolor;" width="10.269" height="0.985"></rect>
		<path style="fill:currentcolor;" d="M22.838,3.734L18.791,0H0v16.402h12.812c0.141,1.194,0.787,2.275,1.793,2.971v1.6V25l2.394-1.358 L19.395,25v-5.627c1.005-0.696,1.651-1.776,1.792-2.971h1.834V3.905L22.838,3.734z M18.987,1.521l2.4,2.218h-2.4V1.521z M18.412,23.284l-1.419-0.768l-1.419,0.768v-3.359c0.462,0.138,0.939,0.208,1.419,0.208c0.482,0,0.958-0.07,1.419-0.208V23.284z M16.999,19.143c-1.789,0-3.244-1.455-3.244-3.244c0-1.789,1.455-3.244,3.244-3.244c1.789,0,3.244,1.455,3.244,3.244 C20.243,17.688,18.788,19.143,16.999,19.143z M22.036,15.449l-0.87,0c-0.313-2.018-2.062-3.759-4.167-3.759 s-3.854,1.699-4.167,3.718H0.985V0.985h17.027v3.74h4.024V15.449z"></path>
		<rect x="2.778" y="3.551" style="fill:currentcolor;" width="10.269" height="0.985"></rect>
		<rect x="2.778" y="6.414" style="fill:currentcolor;" width="10.269" height="0.985"></rect>
	</g>
</svg>