<svg id="iconModuleFacilities" data-name="Facilities Icon" xmlns="http://www.w3.org/2000/svg" viewBox="0 0 25 25" height="130" width="130"><defs></defs>
	<title>Facilities</title>
	<path style="fill:currentcolor;" d="M19.69,7.243H7.155v0.162v0.821v8.603v0.928v0.057h3.505v7.164h0.97v-7.164h1.822v7.164h0.975 v-7.164h5.238L25,12.553L19.69,7.243z M19.318,16.829H8.139V8.226h11.191l4.288,4.288L19.318,16.829z"></path>
	<path style="fill:currentcolor;" d="M5.685,3.512h11.564v2.744h0.979V3.512V2.529h-0.979h-2.82V0h-0.976v0h-1.798v0h-0.986v2.529H5.335 L0,7.791l5.31,5.31l0.387-0.956L1.381,7.83L5.685,3.512z M11.655,0.981h1.798v1.548h-1.798V0.981z"></path>
</svg>