<svg id="iconRSSFeed" data-name="RSS Icon" xmlns="http://www.w3.org/2000/svg" viewBox="0 0 25 25" height="130" width="130"><defs></defs>
	<title>RSS Feed</title>
	<path style="fill:currentcolor;" d="M3,20c1.1,0,2,0.9,2,2c0,1.1-0.9,2-2,2c-1.1,0-2-0.9-2-2C1,20.9,1.9,20,3,20 M3,19c-1.7,0-3,1.3-3,3s1.3,3,3,3
	c1.7,0,3-1.3,3-3S4.7,19,3,19L3,19z"></path>
	<path style="fill:currentcolor;" d="M1,9.9c3.7,0.3,7.1,1.8,9.7,4.4c2.6,2.6,4.1,6,4.4,9.6h-2.3C12.3,17.7,7.3,12.7,1,12.2V9.9 M0,8.8v4.4
	c6.5,0,11.8,5.3,11.8,11.8h4.4c0-4.3-1.7-8.4-4.8-11.4C8.4,10.5,4.3,8.8,0,8.8L0,8.8z"></path>
	<path style="fill:currentcolor;" d="M1,1.1c2.9,0.1,5.6,0.7,8.3,1.9c2.9,1.2,5.4,2.9,7.6,5.1c2.2,2.2,3.9,4.8,5.1,7.6c1.1,2.6,1.7,5.4,1.9,8.2h-2.3
	C21.1,12.9,12.1,3.9,1,3.4V1.1 M0,0v4.4c11.4,0,20.6,9.2,20.6,20.6H25c0-3.4-0.7-6.6-2-9.7c-1.3-3-3.1-5.7-5.4-8
		c-2.3-2.3-5-4.1-8-5.4C6.6,0.7,3.4,0,0,0L0,0z"></path>
</svg>