<svg id="iconModuleCalendar" data-name="Calendar Icon" xmlns="http://www.w3.org/2000/svg" viewBox="0 0 25 25" height="130" width="130"><defs></defs>
	<title>Calendar</title>
	<rect x="3.96" y="2.966" style="fill:#222223" width="5.214" height="0.95"></rect>
	<rect x="15.469" y="2.966" style="fill:#222223" width="5.214" height="0.95"></rect>
	<path style="fill:#222223" d="M0,0v25h24.841V0H0z M23.891,24.05H0.95V6.993h22.94V24.05z M23.891,6.043H0.95V0.95h22.94V6.043z"></path>
	<path style="fill:#222223" d="M6.708,17.36c0.077,0.328,0.184,0.646,0.319,0.944c0.136,0.302,0.314,0.573,0.53,0.806 c0.219,0.234,0.484,0.422,0.788,0.559c0.304,0.139,0.669,0.209,1.085,0.209c0.416,0,0.781-0.071,1.085-0.209 c0.304-0.137,0.569-0.326,0.788-0.559c0.215-0.233,0.393-0.504,0.53-0.806c0.134-0.293,0.241-0.61,0.319-0.944 c0.076-0.325,0.13-0.663,0.158-1.004c0.029-0.351,0.042-0.672,0.042-0.978c0-0.298-0.014-0.616-0.042-0.974 c-0.029-0.344-0.083-0.683-0.158-1.009c-0.078-0.334-0.186-0.651-0.319-0.944c-0.135-0.299-0.313-0.57-0.53-0.806 c-0.219-0.234-0.484-0.422-0.788-0.559c-0.304-0.139-0.669-0.209-1.085-0.209c-0.416,0-0.781,0.07-1.085,0.209 c-0.304,0.137-0.569,0.325-0.788,0.561c-0.217,0.234-0.395,0.505-0.53,0.804c-0.135,0.298-0.243,0.616-0.319,0.944 c-0.076,0.325-0.13,0.665-0.158,1.01c-0.027,0.34-0.041,0.668-0.041,0.973c0,0.312,0.014,0.641,0.041,0.979 C6.578,16.697,6.633,17.035,6.708,17.36z M7.573,14.656c0.016-0.265,0.048-0.536,0.095-0.804c0.046-0.265,0.114-0.53,0.203-0.786 c0.087-0.25,0.202-0.474,0.342-0.667c0.136-0.187,0.307-0.34,0.509-0.454c0.199-0.111,0.438-0.168,0.709-0.168 c0.271,0,0.51,0.057,0.709,0.168c0.202,0.114,0.373,0.267,0.509,0.454c0.14,0.193,0.255,0.417,0.342,0.667 c0.089,0.254,0.157,0.519,0.204,0.786c0.047,0.272,0.078,0.543,0.094,0.804c0.015,0.26,0.023,0.504,0.023,0.723 c0,0.226-0.009,0.47-0.023,0.727c-0.016,0.257-0.047,0.526-0.094,0.798c-0.047,0.269-0.115,0.533-0.204,0.787 c-0.087,0.25-0.202,0.474-0.342,0.667c-0.136,0.187-0.307,0.34-0.509,0.454c-0.199,0.111-0.438,0.168-0.709,0.168 c-0.279,0-0.519-0.057-0.713-0.168c-0.199-0.114-0.369-0.267-0.505-0.454c-0.14-0.193-0.255-0.417-0.342-0.667 c-0.089-0.256-0.157-0.521-0.203-0.787c-0.047-0.269-0.079-0.537-0.095-0.798c-0.015-0.256-0.023-0.5-0.023-0.727 C7.55,15.16,7.558,14.916,7.573,14.656z"></path>
	<path style="fill:#222223" d="M16.721,18.51c-0.179,0.156-0.375,0.275-0.583,0.353c-0.418,0.158-0.762,0.144-1.099,0.035 c-0.172-0.056-0.334-0.135-0.483-0.236c-0.147-0.1-0.282-0.218-0.4-0.349c-0.115-0.129-0.207-0.269-0.273-0.416l-0.054-0.12 l-0.973,0.486l0.059,0.114c0.24,0.465,0.584,0.835,1.021,1.101c0.436,0.266,0.983,0.401,1.625,0.401 c0.324,0,0.656-0.058,0.985-0.174c0.332-0.116,0.64-0.293,0.912-0.525c0.275-0.233,0.501-0.532,0.672-0.891 c0.171-0.356,0.257-0.777,0.257-1.249c0-0.395-0.064-0.774-0.193-1.125c-0.127-0.35-0.313-0.665-0.552-0.932 c-0.239-0.267-0.532-0.48-0.87-0.634c-0.507-0.231-1.142-0.281-1.802-0.183c-0.158,0.023-0.309,0.063-0.452,0.119l0.031-2.365 h3.491v-0.898h-4.423l-0.077,4.687l0.204-0.142c0.228-0.16,0.484-0.293,0.76-0.397c0.537-0.202,1.148-0.208,1.631,0.01 c0.244,0.108,0.457,0.256,0.635,0.443c0.178,0.186,0.321,0.407,0.422,0.658c0.102,0.252,0.153,0.523,0.153,0.807 c0,0.313-0.061,0.592-0.179,0.828C17.05,18.152,16.899,18.353,16.721,18.51z"></path>
</svg>