<svg id="iconModuleSiteMap" data-name="Site Map Icon" xmlns="http://www.w3.org/2000/svg" viewBox="0 0 25 25" height="130" width="130"><defs></defs>
	<title>Site Map</title>
	<path style="fill:currentcolor;" d="M22.129,18.344V12.68v-0.692h-9.175V6.622c1.603-0.24,2.832-1.623,2.832-3.292 c0-1.839-1.49-3.329-3.329-3.329S9.127,1.491,9.127,3.329c0,1.67,1.229,3.052,2.832,3.292v5.366H2.823v6.362 C1.224,18.594,0,19.975,0,21.641c0,1.839,1.49,3.329,3.329,3.329s3.329-1.491,3.329-3.329c0-1.673-1.234-3.058-2.842-3.294v-5.365 h8.142v5.366c-1.603,0.24-2.832,1.623-2.832,3.292c0,1.839,1.49,3.329,3.329,3.329s3.329-1.491,3.329-3.329 c0-1.67-1.229-3.052-2.832-3.292v-5.366h8.181v5.373c-1.584,0.256-2.793,1.63-2.793,3.286c0,1.839,1.49,3.329,3.329,3.329 S25,23.48,25,21.641C25,19.958,23.751,18.567,22.129,18.344z M5.701,21.641c0,1.308-1.063,2.371-2.371,2.371 c-1.308,0-2.371-1.063-2.371-2.371c0-1.308,1.063-2.371,2.371-2.371C4.637,19.27,5.701,20.334,5.701,21.641z M14.827,21.641 c0,1.308-1.063,2.371-2.371,2.371s-2.371-1.063-2.371-2.371c0-1.308,1.063-2.371,2.371-2.371S14.827,20.334,14.827,21.641z M12.456,5.701c-1.308,0-2.371-1.063-2.371-2.371c0-1.308,1.063-2.371,2.371-2.371s2.371,1.063,2.371,2.371 C14.827,4.637,13.764,5.701,12.456,5.701z M21.671,24.013c-1.308,0-2.371-1.063-2.371-2.371c0-1.308,1.063-2.371,2.371-2.371 c1.308,0,2.371,1.063,2.371,2.371C24.042,22.949,22.978,24.013,21.671,24.013z"></path>
</svg>