<svg id="iconModuleCityDirectory" data-name="City Directory Icon" xmlns="http://www.w3.org/2000/svg" viewBox="0 0 25 25" height="130" width="130"><defs></defs>
	<title>Staff Directory</title>
	<g transform="translate(1.583,0)">
		<path style="fill:currentcolor;" d="M21.769,0v25H0.998v-6.726H0v-0.999h0.998v-4.334H0v-0.999h0.998v-4.32H0V6.622h0.998V0H21.769z M2.018,23.98h18.731V1.02H2.018v5.602H3.02v0.999H2.022v4.32H3.02v0.999H2.022v4.334H3.02v0.999H2.022L2.018,23.98z"></path>
		<path style="fill:currentcolor;" d="M16.554,16.369c-1.487,1.113-3.248,1.7-5.104,1.7c-1.857,0-3.618-0.587-5.106-1.7c1.487-1.113,3.248-1.7,5.106-1.7 C13.306,14.67,15.067,15.257,16.554,16.369 M17.957,16.278C16.18,14.615,13.869,13.7,11.45,13.7c-2.418,0-4.73,0.915-6.508,2.578 l-0.098,0.092l0.098,0.091c1.778,1.663,4.089,2.58,6.508,2.58c2.42,0,4.73-0.916,6.506-2.58l0.098-0.091L17.957,16.278z"></path>
		<path style="fill:currentcolor;" d="M8.866,9.396c0-1.425,1.159-2.585,2.585-2.585c1.423,0,2.582,1.159,2.583,2.585c0,1.425-1.159,2.585-2.583,2.585 C10.025,11.98,8.866,10.821,8.866,9.396 M11.45,12.949c1.96,0,3.553-1.595,3.553-3.555c0-1.96-1.594-3.555-3.553-3.555 c-0.949,0-1.843,0.37-2.515,1.041c-0.671,0.671-1.041,1.564-1.04,2.514C7.896,11.354,9.491,12.949,11.45,12.949"></path>
	</g>
</svg>