<svg id="iconEmergencyAlerts" data-name="Emergency Alerts Icon" xmlns="http://www.w3.org/2000/svg" viewBox="0 0 25 25" height="130" width="130"><defs></defs>
	<title>Emergency Alerts</title>
	<g transform="translate(0,1.75)">
		<path style="fill:currentColor;" d="M7.343,18.413l-0.674,0.356c-0.653,0.345-1.384,0.527-2.114,0.527c-1.535,0-2.959-0.777-3.81-2.077 l-0.39-0.738c-0.906-2.192-0.022-4.677,2.06-5.775l4.824-2.545L12.832,0l8.554,16.214l-9.894,0.01l-3.114,1.643l1.651,3.13 l-1.036,0.545L7.343,18.413z M2.91,11.646c-0.825,0.435-1.431,1.166-1.707,2.06c-0.277,0.893-0.189,1.839,0.246,2.663 c0.606,1.151,1.794,1.865,3.099,1.865c0.562,0,1.124-0.139,1.625-0.403l4.804-2.534L7.714,9.112L2.91,11.646z M8.533,8.254 l3.613,6.848l7.381-0.008l-6.82-12.929L8.533,8.254z"></path>
		<polygon style="fill:currentColor;" points="19.527,6.435 23.159,4.459 23.644,5.38 20.012,7.356"></polygon>
		<polygon style="fill:currentColor;" points="16.658,3.72 18.959,0.106 19.818,0.69 17.518,4.304"></polygon>
		<polygon style="fill:currentColor;" points="20.677,11.273 20.778,10.239 25,10.687 24.898,11.721"></polygon>
	</g>
</svg>