<svg id="iconModuleLocations" data-name="Locations Icon" xmlns="http://www.w3.org/2000/svg" viewBox="0 0 25 25" height="130" width="130"><defs></defs>
	<title>Locations</title>
	<g transform="translate(3.25,0)">
		<path style="fill:currentcolor;" d="M17.796,5.657c-0.467-1.103-1.134-2.093-1.985-2.944c-0.85-0.85-1.841-1.518-2.944-1.985C11.725,0.245,10.512,0,9.262,0 c-1.25,0-2.463,0.245-3.605,0.728C4.554,1.195,3.563,1.862,2.713,2.713c-0.85,0.85-1.518,1.841-1.985,2.944 C0.245,6.799,0,8.012,0,9.262c0,1.186,0.477,2.735,1.417,4.603c0.731,1.453,1.747,3.115,3.02,4.942 c2.155,3.092,4.345,5.637,4.367,5.662L9.262,25l0.458-0.531c0.022-0.025,2.211-2.569,4.367-5.662 c1.273-1.827,2.289-3.489,3.02-4.942c0.941-1.869,1.417-3.417,1.417-4.603C18.524,8.012,18.279,6.799,17.796,5.657z M13.098,18.11 c-1.539,2.208-3.099,4.137-3.836,5.025c-0.737-0.888-2.297-2.816-3.836-5.025C2.668,14.151,1.21,11.092,1.21,9.262 c0-4.44,3.612-8.052,8.052-8.052c4.44,0,8.052,3.612,8.052,8.052C17.315,11.092,15.857,14.151,13.098,18.11z"></path>
		<path style="fill:currentcolor;" d="M9.388,5.686c-0.978,0-1.898,0.381-2.589,1.073C6.107,7.45,5.726,8.37,5.726,9.348c0,0.978,0.381,1.898,1.073,2.589 c0.692,0.692,1.611,1.073,2.589,1.073s1.898-0.381,2.589-1.073c0.692-0.692,1.073-1.611,1.073-2.589 c0-0.978-0.381-1.898-1.073-2.589C11.286,6.067,10.367,5.686,9.388,5.686z M9.388,11.946c-1.43,0-2.594-1.164-2.594-2.594 c0-1.43,1.164-2.594,2.594-2.594c1.43,0,2.594,1.164,2.594,2.594C11.983,10.782,10.819,11.946,9.388,11.946z"></path>
	</g>
</svg>