<svg id="iconModuleResourceDirectory" data-name="Resource Directory Icon" xmlns="http://www.w3.org/2000/svg" viewBox="0 0 25 25" height="130" width="130"><defs></defs>
	<title>Resource Directory</title>
	<g transform="translate(1.583,0)">
		<path style="fill:currentcolor;" d="M21.769,0v25H0.998v-6.726H0v-0.999h0.998v-4.334H0v-0.999h0.998v-4.32H0v-1h0.998V0H21.769z M2.018,23.98h18.731V1.02H2.018v5.602H3.02v0.999H2.022v4.32H3.02v0.999H2.022v4.334H3.02v0.999H2.022L2.018,23.98z"></path>
		<path style="fill:currentcolor;" d="M6.491,11.611l4.962-4.494l4.949,4.487l0.009,6.501l-2.892-0.005l-0.005-3.388H9.501l0.006,3.388l-3.017,0.006 L6.491,11.611z M11.453,5.848l-5.925,5.534v7.687l4.939-0.011l0.002-3.371l2.084-0.004l-0.005,3.375l4.83,0.011v-7.687 L11.453,5.848z"></path>
	</g>
</svg>