<svg id="iconModuleCommunityConnection" data-name="Community Connection Icon" xmlns="http://www.w3.org/2000/svg" viewBox="0 0 25 25" height="130" width="130"><defs></defs>
	<title>CommunityConnection</title>
	<polygon style="fill:currentcolor" points="8.583,17.277 11.732,14.119 14.886,17.263 15.599,16.548 12.242,13.202 12.237,9.878 11.227,9.879 11.232,13.189 7.868,16.564 	"></polygon>
	<path style="fill:currentcolor" d="M23.402,22.879c-1.131-1.12-2.637-1.737-4.241-1.737c-1.603,0-3.109,0.617-4.241,1.737l-0.169,0.167l0.169,0.167 c1.131,1.12,2.637,1.737,4.241,1.737c1.603,0,3.11-0.617,4.241-1.737l0.169-0.167L23.402,22.879z M19.2,23.938 c-1.117,0-2.17-0.314-2.986-0.887c0.816-0.573,1.869-0.887,2.986-0.887c1.117,0,2.17,0.314,2.986,0.887 C21.37,23.624,20.317,23.938,19.2,23.938z"></path>
	<path style="fill:currentcolor" d="M19.191,20.483c1.225,0,2.218-0.978,2.218-2.185s-0.993-2.185-2.218-2.185c-1.225,0-2.218,0.978-2.218,2.185 S17.966,20.483,19.191,20.483z M19.191,17.095c0.677,0,1.229,0.54,1.229,1.204c0,0.664-0.551,1.204-1.229,1.204 c-0.677,0-1.229-0.54-1.229-1.204C17.962,17.635,18.514,17.095,19.191,17.095z"></path>
	<path style="fill:currentcolor" d="M4.41,21.191c-1.603,0-3.109,0.617-4.241,1.737L0,23.095l0.169,0.167C1.3,24.383,2.806,25,4.41,25 c1.603,0,3.11-0.617,4.241-1.737l0.169-0.167l-0.169-0.167C7.519,21.807,6.013,21.191,4.41,21.191z M4.448,23.987 c-1.117,0-2.17-0.314-2.986-0.887c0.816-0.573,1.869-0.887,2.986-0.887c1.117,0,2.17,0.314,2.986,0.887 C6.618,23.673,5.565,23.987,4.448,23.987z"></path>
	<path style="fill:currentcolor" d="M4.439,20.532c1.225,0,2.218-0.978,2.218-2.185c0-1.207-0.993-2.185-2.218-2.185c-1.225,0-2.218,0.978-2.218,2.185 C2.221,19.554,3.214,20.532,4.439,20.532z M4.439,17.144c0.677,0,1.229,0.54,1.229,1.204c0,0.664-0.551,1.204-1.229,1.204 c-0.677,0-1.229-0.54-1.229-1.204C3.21,17.684,3.762,17.144,4.439,17.144z"></path>
	<path style="fill:currentcolor" d="M11.787,8.837c1.603,0,3.11-0.617,4.241-1.737l0.169-0.167l-0.169-0.167c-1.131-1.12-2.637-1.737-4.241-1.737 c-1.603,0-3.109,0.617-4.241,1.737L7.378,6.932L7.547,7.1C8.678,8.22,10.184,8.837,11.787,8.837z M11.826,6.05 c1.117,0,2.17,0.314,2.986,0.887c-0.816,0.573-1.869,0.887-2.986,0.887c-1.117,0-2.17-0.314-2.986-0.887 C9.656,6.364,10.709,6.05,11.826,6.05z"></path>
	<path style="fill:currentcolor" d="M11.817,4.369c1.225,0,2.218-0.978,2.218-2.185S13.041,0,11.817,0c-1.225,0-2.218,0.978-2.218,2.185 S10.592,4.369,11.817,4.369z M11.817,0.981c0.677,0,1.229,0.54,1.229,1.204s-0.551,1.204-1.229,1.204 c-0.677,0-1.229-0.54-1.229-1.204S11.14,0.981,11.817,0.981z"></path>
</svg>