<svg id="iconModuleRealEstateLocator" data-name="Real Estate Locator Icon" xmlns="http://www.w3.org/2000/svg" viewBox="0 0 25 25" height="130" width="130"><defs></defs>
	<title>Real Estate Locator</title>
	<g transform="translate(2.833,0)">
		<polyline style="fill:currentcolor;" points="15.424,13.965 15.424,23.97 11.483,23.97 11.483,19.453 4.961,19.453 4.961,23.97 1.048,23.97 1.048,15.243 8.227,10.131 9.476,11.009 9.476,9.736 8.227,8.844 0,14.722 0,25 5.989,25 5.989,20.485 10.465,20.485 10.465,25 16.454,25 16.454,13.965 	"></polyline>
		<path style="fill:currentcolor;" d="M13.55,14.402c-0.013-0.015-1.302-1.513-2.57-3.333c-0.749-1.075-1.347-2.053-1.778-2.908 c-0.554-1.1-0.834-2.011-0.834-2.709c0-0.736,0.144-1.45,0.429-2.122C9.072,2.68,9.465,2.097,9.965,1.597 c0.501-0.501,1.083-0.894,1.733-1.168C12.37,0.144,13.084,0,13.82,0s1.45,0.144,2.122,0.429c0.649,0.275,1.232,0.668,1.733,1.168 c0.501,0.501,0.894,1.084,1.168,1.733c0.284,0.672,0.429,1.386,0.429,2.122c0,0.698-0.281,1.61-0.834,2.709 c-0.43,0.855-1.028,1.833-1.777,2.908c-1.269,1.821-2.557,3.318-2.57,3.333l-0.27,0.312L13.55,14.402z M13.82,1.03 c-2.444,0-4.433,1.989-4.433,4.433c0,1.007,0.803,2.692,2.321,4.871c0.847,1.216,1.706,2.278,2.112,2.766 c0.406-0.489,1.265-1.551,2.112-2.766c1.519-2.179,2.321-3.864,2.321-4.871C18.253,3.018,16.264,1.03,13.82,1.03z"></path>
		<path style="fill:currentcolor;" d="M13.82,7.303c-0.622,0-1.207-0.242-1.647-0.682c-0.44-0.44-0.682-1.025-0.682-1.647c0-0.622,0.242-1.207,0.682-1.647 c0.44-0.44,1.025-0.682,1.647-0.682c0.622,0,1.207,0.242,1.647,0.682c0.44,0.44,0.682,1.025,0.682,1.647 c0,0.622-0.242,1.207-0.682,1.647C15.027,7.06,14.442,7.303,13.82,7.303z M13.82,3.674c-0.716,0-1.299,0.583-1.299,1.299 s0.583,1.299,1.299,1.299c0.716,0,1.299-0.583,1.299-1.299S14.536,3.674,13.82,3.674z"></path>
	</g>
</svg>