<svg id="iconModuleOnlineApplications" data-name="Online Job Applications Icon" xmlns="http://www.w3.org/2000/svg" viewBox="0 0 25 25" height="130" width="130"><defs></defs>
	<title>Online Job Applications</title>
	<path style="fill:currentcolor;" d="M0.974,20.558v-8.944h5.719v3.263h7.749v-3.263h5.67c0,0,0.58,0,1.023,0V5.253h-4.886V0H4.886v5.253H0v16.279h17.307 l0.005-0.974H0.974z M5.846,0.974h9.428v4.279H5.846V0.974z M0.974,6.226H20.16v4.414h-6.687v3.29H7.655v-3.29H0.974V6.226z"></path>
	<path style="fill:currentcolor;" d="M21.557,24.2c-1.559,0-3.395-1.16-3.442-4.43c-0.001-0.053-0.001-2.241-0.001-2.263 c0-3.379,1.855-4.577,3.443-4.577c1.588,0,3.443,1.199,3.443,4.577c0,0.022,0,2.222-0.001,2.282 c-0.023,1.393-0.387,2.539-1.055,3.316C23.336,23.811,22.488,24.2,21.557,24.2z M21.557,13.868c-1.849,0-2.504,1.96-2.504,3.639 c0,0.095,0,2.185,0.001,2.251c0.031,2.16,0.99,3.503,2.504,3.503c1.804,0,2.476-1.801,2.503-3.487 c0.001-0.074,0.001-2.168,0.001-2.267C24.062,15.828,23.406,13.868,21.557,13.868z"></path>
	<path style="fill:currentcolor;" d="M22.058,16.738c0,0.281-0.228,0.509-0.509,0.509l0,0c-0.281,0-0.509-0.228-0.509-0.509v-1.19 c0-0.281,0.228-0.509,0.509-0.509l0,0c0.281,0,0.509,0.228,0.509,0.509V16.738z"></path>
</svg>