<svg id="iconModuleBids" data-name="Bids Icon" xmlns="http://www.w3.org/2000/svg" viewBox="0 0 25 25" height="130" width="130"><defs></defs>
	<title>Bid Posting</title>
	<path style="fill:#222223" d="M15.878,0l-2.791,2.79l1.054,3.001l-5.874,4.977l-3.72-1.052l-3.132,3.131l4.922,4.924L0,24.107l0.744,0.744l6.336-6.336 l5.066,5.068l3.132-3.131l-1.05-3.72l4.979-5.872l3.001,1.055L25,9.125L15.878,0z M21.94,10.733l-3.058-1.075l-5.789,6.828 l1.035,3.666l-1.981,1.98l-9.281-9.284l1.981-1.98l3.666,1.036l6.829-5.787l-1.074-3.058l1.609-1.608l7.671,7.674L21.94,10.733z"></path>
</svg>