<svg id="iconModuleMyDashboard" data-name="My Dashboard Icon" xmlns="http://www.w3.org/2000/svg" viewBox="0 0 25 25" height="130" width="130"><defs></defs>
	<title>My Dashboard</title>
	<path style="fill:#222223;" d="M8.2,6.1H3.9v4.3h4.3C8.2,10.4,8.2,6.1,8.2,6.1z M7.2,9.4H4.9V7.1h2.3V9.4z"></path>
	<path style="fill:#222223;" d="M10.4,6.1v3.5c0.3-0.1,0.7-0.2,1-0.2h-0.1V7.1h2.3v2.3c0.3,0,0.6,0.1,1,0.2V6.1H10.4z"></path>
	<path style="fill:#222223;" d="M21.1,6.1h-4.3v4.3h4.3C21.1,10.4,21.1,6.1,21.1,6.1z M20.1,9.4h-2.3V7.1h2.3V9.4z"></path>
	<rect x="2" y="2" style="fill:#222223;" width="1" height="1"></rect>
	<rect x="3.9" y="2" style="fill:#222223;" width="1" height="1"></rect>
	<rect x="5.8" y="2" style="fill:#222223;" width="1" height="1"></rect>
	<path style="fill:#222223;" d="M18,11.9c0.3,0.3,0.6,0.6,0.9,1h1.3v2.3c0,0,0.1,0.6,0.2,1h0.8v-4.3C21.2,11.9,18,11.9,18,11.9z"></path>
	<path style="fill:#222223;" d="M4.9,15.2v-2.3h1.3c0.3-0.3,0.5-0.7,0.9-1H3.9v4.3h0.8C4.7,15.8,4.9,15.2,4.9,15.2z"></path>
	<path style="fill:#222223;" d="M0,0v18.2h4.6c0-0.2,0-0.3,0-0.5s0-0.3,0-0.5H1V4.8h23v12.4h-3.6c0,0.2,0,0.3,0,0.5s0,0.3,0,0.5H25V0H0z M24,3.9H1V1h23V3.9z"></path>
	<path style="fill:#222223;" d="M12.5,10.6c-3.9,0-7,3.1-7,7c0,1.7,0.6,3.2,1.6,4.4l0,0c0.2-0.2,0.5-0.4,0.8-0.6c-0.9-1-1.4-2.4-1.4-3.8 c0-3.3,2.7-6.1,6.1-6.1s6.1,2.7,6.1,6.1c0,1.5-0.5,2.8-1.4,3.8c0.3,0.2,0.5,0.4,0.8,0.6l0,0c1-1.2,1.6-2.8,1.6-4.4 C19.5,13.8,16.4,10.6,12.5,10.6z"></path>
	<path style="fill:#222223;" d="M7.7,22.8c1.3,1.2,2.9,1.9,4.8,1.9s3.5-0.7,4.8-1.9c-1.3-1.2-2.9-1.9-4.8-1.9C10.7,20.9,9,21.6,7.7,22.8z M12.5,23.7c-1.1,0-2.3-0.3-3.2-0.9c1-0.6,2.1-0.9,3.2-0.9s2.3,0.3,3.2,0.9C14.8,23.4,13.7,23.7,12.5,23.7z"></path>
	<path style="fill:#222223;" d="M15,17.8c0-1.4-1.1-2.5-2.5-2.5S10,16.4,10,17.8s1.1,2.5,2.5,2.5S15,19.2,15,17.8z M10.9,17.8 c0-0.9,0.7-1.6,1.6-1.6c0.9,0,1.6,0.7,1.6,1.6s-0.7,1.6-1.6,1.6C11.6,19.3,10.9,18.6,10.9,17.8z"></path>
</svg>