<svg id="iconModuleePaymentCenter" data-name="ePayment Center Icon" xmlns="http://www.w3.org/2000/svg" viewBox="0 0 25 25" height="130" width="130"><defs></defs>
	<title>ePayment Center</title>
	<path style="fill:currentcolor" transform="translate(6.75,0)" d="M6.363,11.872v-8.69c1.837,0.08,3.449,1.34,3.954,3.138l1.17-0.329c-0.653-2.318-2.744-3.943-5.124-4.024V0H5.124v2.058 C2.578,2.554,0.649,4.796,0.649,7.484c0,2.678,1.892,4.881,4.475,5.379v8.69c-1.836-0.08-3.448-1.34-3.955-3.138L0,18.745 c0.653,2.318,2.746,3.943,5.124,4.024V25h1.239v-2.323c2.546-0.496,4.474-2.738,4.474-5.426C10.837,14.573,8.946,12.37,6.363,11.872 z M1.863,7.484c0-2.014,1.392-3.696,3.261-4.171v8.325C3.225,11.166,1.863,9.492,1.863,7.484z M6.363,21.422v-8.325 c1.898,0.471,3.26,2.144,3.26,4.153C9.623,19.265,8.231,20.947,6.363,21.422z"></path>
</svg>