<svg id="iconModuleCommunityVoice" data-name="Community Voice Icon" xmlns="http://www.w3.org/2000/svg" viewBox="0 0 25 25" height="130" width="130"><defs></defs>
	<title>Community Voice</title>
	<path style="fill:currentcolor" transform="translate(6.333,0)" d="M11.3,10.7V5.1c0-2.6-2-4.8-4.6-5.1h-1C3.1,0.2,1.1,2.4,1.1,5.1v5.6H0v1.2h1.1v2.3c0,2.6,1.9,4.7,4.5,5v4.7H2V25h8.4v-1.2 H6.8v-4.7c2.6-0.3,4.5-2.4,4.5-5v-2.3h1.1v-1.2L11.3,10.7L11.3,10.7z M6.2,18c-2.2,0-3.9-1.8-3.9-3.9v-2.3h7.8v2.3 C10.1,16.3,8.4,18,6.2,18z M10.1,5.1v5.6H2.3V5.1c0-2.2,1.8-3.9,3.9-3.9S10.1,2.9,10.1,5.1z"></path>
</svg>