<svg id="iconModuleCRT" data-name="Citizen Request Tracker Icon" xmlns="http://www.w3.org/2000/svg" viewBox="0 0 25 25" height="130" width="130">
	<title>Citizen Request Tracker</title>
	<path style="fill:#222223;" d="M2.879,20.78V0.975h12.485l-0.003,5.789l5.38,0.008v9.614l0.975-0.011V5.811l-5.183-5.81L1.905,0 v21.755h11.961l0-0.975H2.879z M16.34,1.253l4.118,4.546h-4.121L16.34,1.253z"/>
	<rect x="6.44" y="11.518" style="fill:#222223;" width="10.738" height="0.988"/>
	<rect x="6.44" y="9.172" style="fill:#222223;" width="10.738" height="0.955"/>
	<rect x="6.44" y="13.912" style="fill:#222223;" width="10.738" height="0.934"/>
	<polygon style="fill:#222223;" points="19.326,17.534 18.637,18.224 21.209,20.812 14.982,20.819 14.982,21.791 21.209,21.783  18.724,24.311 19.401,25 23.095,21.303 	"/>
</svg>