<svg id="iconModuleCityPolls" data-name="Opinion Polls Icon" xmlns="http://www.w3.org/2000/svg" viewBox="0 0 25 25" height="130" width="130"><defs></defs>
	<title>Opinion Polls</title>
	<g transform="translate(0,0.917)">
		<path style="fill:currentcolor;" d="M3.255,0C1.457,0,0,1.457,0,3.255c0,1.797,1.457,3.255,3.255,3.255s3.255-1.457,3.255-3.255 C6.509,1.457,5.052,0,3.255,0z M3.255,5.331c-1.146,0-2.076-0.929-2.076-2.076c0-1.147,0.929-2.076,2.076-2.076 s2.076,0.929,2.076,2.076C5.331,4.401,4.401,5.331,3.255,5.331z"></path>
		<rect x="9.216" y="2.686" style="fill:currentcolor;" width="15.784" height="1.168"></rect>
		<circle style="fill:currentcolor;" cx="3.233" cy="3.296" r="0.934"></circle>
		<path style="fill:currentcolor;" d="M3.255,8.409C1.457,8.409,0,9.866,0,11.664c0,1.797,1.457,3.255,3.255,3.255 s3.255-1.457,3.255-3.255C6.509,9.866,5.052,8.409,3.255,8.409z M3.255,13.74c-1.146,0-2.076-0.929-2.076-2.076 c0-1.147,0.929-2.076,2.076-2.076s2.076,0.929,2.076,2.076C5.331,12.81,4.401,13.74,3.255,13.74z"></path>
		<rect x="9.216" y="11.095" style="fill:currentcolor;" width="15.784" height="1.168"></rect>
		<circle style="fill:currentcolor;" cx="3.233" cy="11.705" r="0.934"></circle>
		<path style="fill:currentcolor;" d="M3.255,16.713C1.457,16.713,0,18.17,0,19.968c0,1.797,1.457,3.255,3.255,3.255 s3.255-1.457,3.255-3.255C6.509,18.17,5.052,16.713,3.255,16.713z M3.255,22.043c-1.146,0-2.076-0.929-2.076-2.076 c0-1.147,0.929-2.076,2.076-2.076s2.076,0.929,2.076,2.076C5.331,21.114,4.401,22.043,3.255,22.043z"></path>
		<rect x="9.216" y="19.399" style="fill:currentcolor;" width="15.784" height="1.168"></rect>
		<circle style="fill:currentcolor;" cx="3.233" cy="20.009" r="0.934"></circle>
	</g>
</svg>