<svg id="iconModuleActivities" data-name="Activities Icon" xmlns="http://www.w3.org/2000/svg" viewBox="0 0 25 25" height="130" width="130"><defs></defs>
	<title>Activities</title>
	<path style="fill:currentcolor" transform="translate(3.25,0)" d="M15.405,7.105c-0.631,0-1.233-0.189-1.834-0.447v-5.75c0,0-1.153,1-3.158,1C8.408,1.907,6.686,0,4.424,0 S1.052,0.907,1.052,0.907V0H0.518H0v19.323h1.052V10.03c0,0,1.093-1.175,3.372-1.175c0.193,0,0.382,0.016,0.568,0.044V25h1.052 v-9.772c0,0,1.093-1.175,3.372-1.175s3.992,2.131,5.989,2.133c1.997,0.002,3.158-0.958,3.158-0.958V6.105 C18.563,6.105,17.409,7.105,15.405,7.105z M12.519,4.017l-0.007,2.137c-0.966-0.478-1.963-0.956-3.096-0.956 c-2.262,0-3.372,0.907-3.372,0.907V5.198H5.546H4.992v2.639C4.806,7.809,4.617,7.792,4.424,7.792c-2.28,0-3.372,1.175-3.372,1.175 v-7.03c0,0,1.11-0.907,3.372-0.907s3.984,1.907,5.989,1.907c0.858,0,1.584-0.206,2.107-0.416V4.017z"></path>
</svg>