<svg id="iconModuleAgendaCenter" data-name="Agenda Center Icon" xmlns="http://www.w3.org/2000/svg" viewBox="0 0 25 25" height="130" width="130"><defs></defs>
	<title>Agenda Center</title>
	<g transform="translate(3.25,0)">
		<rect style="fill:currentcolor" x="3.773" y="10.335" width="11.013" height="0.938"></rect>
		<rect style="fill:currentcolor" x="3.773" y="12.544" width="11.013" height="0.938"></rect>
		<rect style="fill:currentcolor" x="3.773" y="14.752" width="11.013" height="0.938"></rect>
		<rect style="fill:currentcolor" x="3.773" y="16.961" width="11.013" height="0.938"></rect>
		<path style="fill:currentcolor" d="M4.892,3.249H0V25h18.559V3.249h-4.891v-0.74h-1.431V0H6.273v2.508H4.892V3.249z M9.255,1.104 c0.757,0,1.373,0.616,1.373,1.374c0,0.752-0.613,1.367-1.367,1.371c-0.767-0.004-1.38-0.619-1.38-1.371 C7.881,1.721,8.497,1.104,9.255,1.104z M13.667,5.531V4.194l3.941,0.007l-0.004,19.849L0.941,24.051l0.001-19.85L4.89,4.195 l0.002,1.336H13.667z"></path>
	</g>
</svg>