<svg id="iconModuleArchive" data-name="Archive Icon" xmlns="http://www.w3.org/2000/svg" viewBox="0 0 25 25" height="130" width="130"><defs></defs>
	<title>Archive</title>
		<path style="fill:currentcolor" d="M0,0v25h4.839v-2.016h15.322V25H25V0H0z M20.968,24.194v-2.016H4.032v2.016H0.806V0.806h23.387 v23.387H20.968z"></path>
		<path style="fill:currentcolor" d="M12.5,7.628c-2.547,0-4.436,2.105-4.436,4.415c0,2.446,1.99,4.435,4.435,4.435 c2.444,0,4.435-1.99,4.435-4.435C16.935,9.732,14.938,7.628,12.5,7.628L12.5,7.628z M14.279,8.898 c1.587,0.893,2.297,2.846,1.57,4.562c-0.781,1.843-2.916,2.706-4.757,1.926c-1.843-0.781-2.707-2.914-1.926-4.757 c0.727-1.716,2.625-2.564,4.37-2.045l-0.613,1.447l0.743,0.315L14.279,8.898z"></path>
		<path style="fill:currentcolor" d="M12.097,6.172"></path>
		<path style="fill:currentcolor" d="M12.5,3.575c-4.67,0-8.468,3.799-8.468,8.468c0,4.669,3.798,8.468,8.468,8.468 c4.669,0,8.468-3.799,8.468-8.468C20.968,7.374,17.169,3.575,12.5,3.575z M12.097,5.971h0.806V4.402 c1.808,0.095,3.447,0.816,4.713,1.954l-1.125,1.125l0.57,0.57l1.125-1.124c1.138,1.264,1.859,2.905,1.955,4.713h-1.592v0.806h1.592 c-0.095,1.808-0.817,3.449-1.955,4.713l-1.125-1.125l-0.57,0.57l1.125,1.125c-1.265,1.138-2.905,1.859-4.713,1.955v-1.592h-0.806 v1.592c-1.808-0.095-3.449-0.817-4.713-1.955l1.123-1.125l-0.569-0.57l-1.125,1.125c-1.139-1.264-1.861-2.905-1.955-4.713h1.592 v-0.806H4.859c0.094-1.808,0.815-3.449,1.955-4.713l1.125,1.124l0.569-0.57L7.384,6.356c1.264-1.139,2.905-1.859,4.713-1.954V5.971"></path>
</svg>