<svg id="iconModuleFAQs" data-name="FAQs Icon" xmlns="http://www.w3.org/2000/svg" viewBox="0 0 25 25" height="130" width="130"><defs></defs>
	<title>FAQ</title>
	<g transform="translate(2.75,0)">
		<path style="fill:#222223;" d="M18.423,0v0.015H0v0.952h3.016v2.645L3.015,3.613l0.001,0.001v0.017h0.031l0.217,0.118 C1.512,4.405,0.264,6.095,0.264,8.077c0,1.2,0.457,2.292,1.207,3.114c-0.621,1.234-0.973,2.627-0.973,4.104 c0,4.092,2.684,7.555,6.382,8.715H2.724V25h13.972v-0.991h-4.38c3.698-1.16,6.382-4.623,6.382-8.715 c0-1.427-0.328-2.777-0.911-3.98c0.819-0.834,1.326-1.977,1.326-3.238c0-1.917-1.168-3.562-2.831-4.261l0.225-0.121l-0.003-0.006 h0.017V0.967h1.903v3.647h1.011V0.967V0.015V0H18.423z M4.028,0.967h11.481v2.116l-0.718,0.385 c-0.099-0.006-0.199-0.011-0.299-0.011c-1.713,0-3.208,0.933-4.006,2.319L9.789,6.149L8.786,5.603 c-0.82-1.29-2.26-2.147-3.902-2.147c-0.014,0-0.027,0.001-0.04,0.001L4.028,3.013V0.967z M9.406,7.13 C9.428,7.13,9.451,7.129,9.473,7.129l0.311,0.169l0.008-0.014l0.005,0.009l0.158-0.085C9.9,7.489,9.871,7.78,9.871,8.077 c0,1.734,0.956,3.244,2.369,4.035l-2.51,1.345l-2.534-1.38c1.38-0.799,2.309-2.291,2.309-4C9.505,7.752,9.47,7.436,9.406,7.13z M1.142,8.077c0-2.067,1.675-3.742,3.742-3.742c2.067,0,3.742,1.675,3.742,3.742c0,2.067-1.675,3.742-3.742,3.742 C2.818,11.819,1.142,10.144,1.142,8.077z M9.598,23.464c-4.497,0-8.143-3.657-8.143-8.169c0-1.232,0.274-2.399,0.761-3.446 c0.754,0.534,1.674,0.849,2.668,0.849c0.377,0,0.743-0.046,1.094-0.131l3.747,2.04l0.008-0.014l0.005,0.009l3.754-2.013 c0.322,0.071,0.657,0.11,1,0.11c0.935,0,1.805-0.279,2.533-0.757c0.46,1.023,0.716,2.159,0.716,3.354 C17.741,19.807,14.095,23.464,9.598,23.464z M18.234,8.077c0,2.067-1.675,3.742-3.742,3.742c-2.067,0-3.742-1.675-3.742-3.742 c0-2.067,1.675-3.742,3.742-3.742C16.558,4.335,18.234,6.01,18.234,8.077z"></path>
		<circle style="fill:#222223;" cx="5.975" cy="8.45" r="0.776"></circle>
		<circle style="fill:#222223;" cx="13.415" cy="8.538" r="0.776"></circle>
	</g>
</svg>